<svg fill="none" xmlns="http://www.w3.org/2000/svg" viewBox="0 0 1440 357"><path fill="#F6F000" d="M0-2h1440v233H0z"/><path d="M1013.4 188c2.4.4 4 1.7 5.8 2.8l45.5 26.4c3 1.7 6 3.3 9.4 3.6 4.5.4 8.5-.9 12.4-3l32.4-18.7 15.7-9c1-.6 2.3-1 3.8-1.7.9 4 .7 7.8.1 11.5-.3 1.8-1.8 2.8-3.3 3.7l-12.7 7.3-35.8 20.6-1 .5c-6.6 4.1-13 3.9-19.7-.1-10.5-6.3-21.2-12.4-31.8-18.6l-15.6-9c-1.1-.7-2.4-1.3-3.3-2.2a8 8 0 01-2-3.3c-.4-1.2-.3-2.6-.3-4 0-2.1-.2-4.4.4-6.8zM632.5 139c1.6.7 3 1.2 4.2 2l43.8 25.2 84.2 48.6c10.8 6.3 21.7 12.4 32.5 18.8a19.4 19.4 0 0021.4 0c15.8-9.3 31.7-18.4 47.7-27.6 1.2-.7 2.6-1.3 4.1-2 .9 3.8.6 7.2.4 10.6-.1 2.1-1.4 3.4-3.2 4.5l-14.2 8.2c-12 7-24 13.8-35.9 20.9a18.8 18.8 0 01-11.3 2.7c-3-.2-5.5-1.3-8-2.8l-56.5-32.7-75.3-43.5c-9.9-5.7-19.7-11.5-29.6-17-3.4-1.9-5.1-4.3-4.8-8.2.3-2.4-.2-4.8.5-7.7zM93.4 108c2.4.4 4 1.7 5.8 2.8l45.5 26.4c3 1.7 6 3.3 9.4 3.6 4.5.4 8.5-.9 12.4-3l32.4-18.7 15.7-9c1-.6 2.3-1 3.8-1.7.9 4 .7 7.8.1 11.5-.3 1.8-1.8 2.8-3.3 3.7l-12.7 7.3-35.8 20.6-1 .5c-6.6 4.1-13 3.9-19.7-.1-10.5-6.3-21.2-12.4-31.8-18.6l-15.6-9c-1.1-.7-2.4-1.3-3.3-2.2-.9-.9-1.7-2-2-3.3-.4-1.2-.3-2.6-.2-4 0-2.1-.3-4.4.3-6.8zM1220.4 175c2.4.5 4.1 1.8 5.9 2.8l45.8 27c3 1.8 6 3.4 9.5 3.7 4.5.4 8.6-.9 12.5-3.1l32.6-19 15.8-9.2c1.2-.7 2.4-1.1 3.9-1.8.9 4.2.7 8 .1 11.8-.3 1.8-1.8 2.8-3.3 3.7l-12.9 7.5-36 21-1 .6c-6.7 4.2-13.2 3.9-19.9-.2l-32-19-15.8-9.2c-1.1-.7-2.4-1.3-3.3-2.2-.9-1-1.7-2.1-2-3.3-.4-1.3-.3-2.7-.2-4 0-2.3-.3-4.6.3-7.1zM1082.4 9c2.2 1 4 1.8 5.8 2.8l45.5 27c3 1.8 6 3.4 9.4 3.7a20 20 0 0012.4-3.1l32.4-19 15.7-9.2c1-.7 2.3-1.1 3.8-1.8.9 4.2.7 8 .1 11.8-.3 1.8-1.8 2.8-3.3 3.7l-12.7 7.5-35.8 21-1 .6c-6.6 4.2-13 3.9-19.7-.2-10.5-6.4-21.2-12.6-31.8-19-5.2-3-10.4-6-15.6-9.2-1.1-.7-2.4-1.3-3.3-2.2-.9-1-1.7-2.1-2-3.3-.4-1.3-.3-2.7-.3-4 0-2.3-.2-4.6.4-7.1zM926.4 82c2.2.9 4 1.7 5.8 2.7l45 25.9c3 1.7 6 3.2 9.4 3.5 4.5.4 8.5-.8 12.3-3l32.1-18.2c5.2-3 10.4-6 15.6-8.8l3.8-1.7c.9 4 .7 7.6.1 11.3-.3 1.7-1.8 2.7-3.2 3.5l-12.7 7.2-35.5 20.1-1 .6c-6.5 4-13 3.8-19.5-.1-10.4-6.2-21-12.2-31.5-18.2l-15.6-8.9c-1-.6-2.3-1.2-3.2-2.1-.9-.9-1.7-2-2-3.2-.4-1.2-.3-2.6-.3-3.9 0-2.1-.2-4.3.4-6.7z" fill="#fff" stroke="#fff" stroke-width="1.3" stroke-miterlimit="10"/><path d="M1235 257.6c0 2.3-.2 4.6 0 6.8 0 3.4-1.5 5.9-4.4 7.5l-15.8 9c-11.5 6.7-23 13.2-34.5 20a19.7 19.7 0 01-21.5 0c-15.8-9.4-31.7-18.7-47.7-27.7-5.1-2.9-7.6-6.5-7-12.4.3-3.4 0-6.8 0-10.3 0-4 1.7-6.8 5.2-8.7l30.1-17.3c6.8-3.9 13.6-7.6 20.3-11.6 6.7-3.9 13.2-3.9 19.9 0 16.7 9.8 33.4 19.5 50.2 29.1 3.7 2.1 5.5 5 5.2 9.3-.2 2 0 4.2 0 6.3zm-65.5 28.4a20 20 0 009.5-2.9l47.8-27.4c1.3-.7 2.7-1.5 3.9-2.4 2.5-2 2.7-5.8.3-8a17 17 0 00-2.8-1.9L1179 215a17.5 17.5 0 00-18.8 0l-48.8 28c-1.1.7-2.3 1.4-3.3 2.3a5 5 0 00.2 7.5c1 .9 2.1 1.5 3.3 2.2l12.3 7.1 36.3 21.1c2.9 1.7 5.9 2.7 9.3 2.9zm-62.8-31.3c-.6 2.5-.3 4.7-.4 7 0 1.3-.1 2.7.2 3.9a8.2 8.2 0 002 3.3c1 .9 2.2 1.5 3.4 2.2l15.7 9c10.7 6.3 21.4 12.4 31.9 18.7 6.7 4 13.2 4.3 19.8.1l1-.5 36-20.7 12.8-7.3c1.4-.9 3-1.9 3.3-3.7.5-3.7.7-7.5-.2-11.6-1.5.7-2.7 1.1-3.8 1.8l-15.8 9-32.5 18.7c-3.9 2.2-8 3.5-12.4 3-3.6-.3-6.6-1.8-9.5-3.6l-45.7-26.5c-1.7-1-3.4-2.3-5.8-2.8z" fill="#000"/><path d="M1230.8 244.7c-1-.7-2-1.2-3-1.7-15.7-9-31.5-17.9-47.2-27-6.8-4-13.3-4-20 0-15.6 9-31.3 17.8-46.9 26.7-1.3.7-2.6 1.4-3.8 2.4-2.6 2-2.5 5.6 0 7.7 1 .8 2.2 1.5 3.3 2.1l11.3 6.4 37 21.2c2.8 1.6 5.7 2.6 9.3 2.5 3.2.2 6.3-1 9.3-2.8l47.7-27.2 3-1.8c3-2.2 3-6.2 0-8.5z" fill="#fff" stroke="#fff" stroke-width="1.3" stroke-miterlimit="10"/><path d="M1214.5 297c1-.6 1.7-.8 3-.4l19.8 5.1-4-13.2c-.2-.8.2-1.1 1.4-1.7.9-.5 1.8-.2 2.1.7l4.5 14.2c.2.6 0 1-.9 1.5l-1.4.7c-.8.4-1.5.5-2.5.2l-21.4-5.6c-1.3-.4-1.6-1-.6-1.5z" fill="#000"/><path d="M1154.5 301c2.8.5 4.7 2 6.7 3.2l52.7 31c3.4 2 6.9 3.8 11 4.2 5.1.5 9.8-1 14.3-3.6l37.5-21.8 18.2-10.5c1.3-.7 2.6-1.3 4.4-2 1 4.8.8 9.1.2 13.4-.4 2.2-2.2 3.3-3.9 4.3l-14.8 8.6-41.4 24-1.2.7c-7.6 4.8-15.1 4.5-22.8-.1-12.2-7.4-24.5-14.5-36.8-21.7l-18.1-10.7c-1.3-.7-2.8-1.4-3.8-2.5-1-1-2-2.4-2.4-3.8-.4-1.5-.3-3.1-.2-4.6 0-2.6-.4-5.2.4-8.1z" fill="#fff" stroke="#fff" stroke-width="1.3" stroke-miterlimit="10"/><path d="M637 194c0 2.3-.2 4.6 0 6.9 0 3.3-1.5 5.7-4.4 7.4l-15.8 9-34.5 19.5a20 20 0 01-21.5 0c-15.8-9.2-31.7-18.4-47.7-27.3-5.2-2.8-7.6-6.4-7-12.2.3-3.4 0-6.8 0-10.2 0-4 1.7-6.7 5.2-8.7l30.1-17 20.3-11.5a18.5 18.5 0 0119.9 0l50.2 28.8c3.7 2 5.5 4.9 5.2 9.2-.2 2 0 4.1 0 6.2zm-65.5 28.2c3.3 0 6.5-1.1 9.5-2.8l47.8-27.2c1.3-.7 2.7-1.4 3.9-2.3a5 5 0 00.3-7.9 17 17 0 00-2.8-2L581 151.9a17.6 17.6 0 00-18.8.1l-48.8 27.7a19 19 0 00-3.2 2.2c-2.3 2-2.3 5.5 0 7.5 1 .8 2.2 1.4 3.4 2.1 4 2.4 8.2 4.7 12.3 7l36.3 21a21 21 0 009.3 2.8zm-62.8-31c.1 2.5-.3 4.7-.4 6.9 0 1.3-.1 2.7.2 4a8.2 8.2 0 002 3.2c1 .9 2.2 1.5 3.4 2.1l15.7 9c10.7 6.2 21.4 12.2 32 18.5 6.6 4 13 4.2 19.7 0l1-.5 36-20.4 12.8-7.3c1.5-.8 3-1.8 3.3-3.6.5-3.7.7-7.4-.2-11.5l-3.8 1.8-15.8 8.9-32.5 18.5c-3.9 2.2-8 3.5-12.4 3-3.6-.3-6.5-1.8-9.5-3.5L514.5 194c-1.7-1-3.4-2.3-5.8-2.7z" fill="#000"/><path d="M631.8 181.2l-2.9-1.8c-15.6-9.1-31.3-18.1-46.9-27.4a18 18 0 00-20 0c-15.3 9.2-30.8 18-46.3 27.1-1.3.7-2.6 1.5-3.8 2.4a5 5 0 000 7.9c1 .8 2.2 1.5 3.3 2.1l11.1 6.5 36.7 21.5c2.8 1.6 5.8 2.6 9.3 2.5 3.2.2 6.3-1 9.2-2.8l47.4-27.6c1-.6 2-1.1 2.8-1.8 3-2.3 3-6.4 0-8.6z" fill="#fff" stroke="#fff" stroke-width="1.3" stroke-miterlimit="10"/><path d="M508.4 191c2.2 1 4.1 1.8 5.9 2.8l45.8 27c3 1.8 6 3.4 9.5 3.7 4.5.4 8.6-.9 12.5-3.1l32.6-19 15.8-9.2c1.1-.7 2.4-1.1 3.9-1.8.9 4.2.7 8 .1 11.8-.3 1.8-1.8 2.8-3.3 3.7l-12.9 7.5-36 21-1 .6c-6.7 4.2-13.2 3.9-19.9-.2l-32-19-15.8-9.2c-1.1-.7-2.4-1.3-3.3-2.2-.9-1-1.7-2.1-2-3.3-.4-1.3-.3-2.7-.3-4 0-2.3-.2-4.6.4-7.1zM446.4 111c2.4.4 4.1 1.7 5.9 2.8l45.8 26.4c3 1.7 6 3.3 9.5 3.6 4.5.4 8.6-.9 12.5-3l32.6-18.7 15.8-9c1.1-.6 2.4-1 3.9-1.7.9 4 .7 7.8.1 11.5-.3 1.8-1.8 2.8-3.3 3.7l-12.9 7.3-36 20.6-1 .5c-6.7 4.1-13.2 3.9-19.9-.1-10.6-6.3-21.3-12.4-32-18.6l-15.8-9c-1.1-.7-2.4-1.3-3.3-2.2-.9-.9-1.7-2-2-3.3-.4-1.2-.3-2.6-.2-4 0-2.1-.3-4.4.3-6.8z" fill="#fff" stroke="#fff" stroke-width="1.3" stroke-miterlimit="10"/><path d="M554.3 204.5c-2.7-1.8-2.7-4.3.2-6a9.1 9.1 0 019.4 0c1.9 1.2 2.5 2.5 1.9 3.9-.2.3-.6.4-1 .2h-.2c-.4-.2-.5-.4-.4-.7.3-1-.1-1.9-1.4-2.7a6.7 6.7 0 00-7 .1c-2.2 1.4-2.3 3.2-.4 4.5 1.3.8 2.7 1 4.2.9.5 0 .9 0 1.1.3.3.4.3.6-.2.7-2.2.4-4.3 0-6.2-1.2zM564.2 210.8c-2.3-1.5-2.3-2.8.6-4.6l4.4-2.8-.8-.5c-.4-.3-.4-.5 0-.7.3-.2.6-.2 1 0l.8.6 1.3-.8c.3-.2.7-.2 1 0h.3c.5.3.5.5.1.8l-1.4.8 2.4 1.5c.4.3.4.5 0 .7-.2.2-.6.2-1 0l-2.4-1.5-4.4 2.7c-2.7 1.7-1.8 2.5-.5 3.3.4.2.5.5.2.7-.3.3-.7.3-1.1 0l-.5-.2zM580.2 209c.4.3.3.6 0 .7l-.2.1c-.4.2-.8.2-1.1-.1-1.8-1.3-4-1-6 .4l-4.3 2.6a1 1 0 01-1.1 0h-.1c-.4-.3-.4-.6 0-.8l8-5a1 1 0 011.2 0h.1c.4.3.4.5 0 .7l-1 .7c1.2-.3 3-.4 4.5.7zM573.3 215.7l11.2-7a1 1 0 011.1 0l.2.2c.3.2.3.4 0 .7l-11.2 7a1 1 0 01-1-.1l-.2-.1c-.4-.2-.4-.5 0-.7zM575 113c0 2.3-.2 4.6 0 6.9 0 3.3-1.5 5.7-4.4 7.4l-15.8 9-34.5 19.5a20 20 0 01-21.5 0c-15.8-9.2-31.7-18.4-47.7-27.3-5.2-2.8-7.6-6.4-7-12.2.3-3.4 0-6.8 0-10.2 0-4 1.7-6.7 5.2-8.7l30.1-17 20.3-11.5a18.5 18.5 0 0119.9 0l50.2 28.8c3.7 2 5.5 4.9 5.2 9.2-.2 2 0 4.1 0 6.2zm-65.5 28.2c3.3-.1 6.5-1.1 9.5-2.9l47.8-27c1.3-.8 2.7-1.5 3.9-2.4a5 5 0 00.3-7.9 17 17 0 00-2.8-2L519 70.9a17.6 17.6 0 00-18.8.1l-48.8 27.7a19 19 0 00-3.2 2.2c-2.3 2-2.3 5.5 0 7.5 1 .8 2.2 1.4 3.4 2.1 4 2.4 8.2 4.7 12.3 7l36.3 21c2.9 1.6 5.9 2.6 9.3 2.8zm-62.8-31c-.6 2.5-.3 4.7-.4 6.9 0 1.3-.1 2.7.2 3.9a8.2 8.2 0 002 3.3c1 .9 2.2 1.4 3.4 2.1l15.7 9c10.6 6.2 21.3 12.2 31.9 18.5 6.7 4 13.2 4.2 19.8 0l1-.5 36-20.4 12.7-7.3c1.5-.8 3-1.8 3.4-3.6.5-3.7.7-7.4-.2-11.5-1.5.7-2.7 1.1-3.8 1.8l-15.8 8.9-32.5 18.5c-3.9 2.2-8 3.5-12.5 3-3.5-.3-6.5-1.8-9.4-3.5L452.5 113c-1.7-1-3.4-2.3-5.8-2.7z" fill="#000"/><path d="M570.7 100.2c-.9-.7-2-1.3-2.9-1.8-16-9.1-32-18.1-48-27.4-7-4-13.5-4-20.5 0-15.7 9.2-31.6 18-47.5 27.1-1.3.7-2.7 1.5-3.8 2.4-2.7 2.1-2.7 5.7 0 7.9 1 .8 2.2 1.5 3.3 2.1l11.4 6.5 37.6 21.5a17 17 0 009.5 2.5c3.3.2 6.4-1 9.4-2.8l48.6-27.6c1-.6 2-1.1 2.9-1.8 3-2.3 3-6.4 0-8.6z" fill="#fff" stroke="#fff" stroke-width="1.3" stroke-miterlimit="10"/><path d="M221 110.6c0 2.3-.2 4.6 0 6.8 0 3.4-1.5 5.9-4.4 7.5l-15.8 9c-11.5 6.7-23 13.2-34.5 20a19.7 19.7 0 01-21.5 0c-15.8-9.4-31.7-18.7-47.7-27.7-5.2-2.9-7.6-6.5-7-12.4.3-3.4 0-6.8 0-10.3 0-4 1.7-6.8 5.2-8.7l30.1-17.3c6.8-3.9 13.6-7.6 20.3-11.6 6.7-3.9 13.2-3.9 19.9 0 16.7 9.8 33.4 19.5 50.2 29.1 3.7 2.1 5.5 5 5.2 9.3-.2 2 0 4.2 0 6.3zM155.4 139a20 20 0 009.5-2.9l47.8-27.4c1.3-.7 2.7-1.5 3.9-2.4 2.5-2 2.7-5.8.3-8a17 17 0 00-2.8-1.9L165 68a17.5 17.5 0 00-18.8 0L97.4 96a19 19 0 00-3.2 2.3 5 5 0 000 7.5c1 .9 2.2 1.5 3.4 2.2l12.3 7.1c12 7 24.2 14 36.3 21.2 2.9 1.6 5.9 2.6 9.3 2.8zm-62.8-31.3c-.6 2.5-.3 4.7-.4 7 0 1.3-.1 2.7.2 3.9a8.2 8.2 0 002 3.3c1 .9 2.2 1.5 3.4 2.2l15.7 9 31.9 18.7c6.7 4 13.2 4.3 19.8.1l1-.5 36-20.7 12.7-7.3c1.5-.9 3-1.9 3.4-3.7.5-3.7.7-7.5-.2-11.6-1.5.7-2.7 1.1-3.8 1.8l-15.8 9-32.5 18.7c-3.9 2.2-8 3.5-12.5 3-3.5-.3-6.5-1.8-9.4-3.6l-45.7-26.5c-1.7-1-3.4-2.3-5.8-2.8zM370 145c0 2.4-.2 4.7 0 7a8 8 0 01-4.4 7.6l-15.8 9.1-34.5 20a19.6 19.6 0 01-21.5.1c-15.8-9.4-31.7-18.8-47.7-28-5.2-2.8-7.6-6.5-7-12.4.3-3.5 0-7 0-10.4 0-4 1.7-6.9 5.2-8.9 10.1-5.7 20.1-11.6 30.1-17.4l20.3-11.7c6.7-4 13.2-4 19.9 0l50.2 29.3c3.7 2.2 5.5 5 5.2 9.4-.2 2.1 0 4.3 0 6.4zm-65.5 28.8c3.3 0 6.5-1.1 9.5-2.9l47.8-27.7c1.3-.8 2.7-1.5 3.9-2.4 2.5-2 2.7-5.9.3-8a17 17 0 00-2.8-2L314 101.9a17.3 17.3 0 00-18.8.1l-48.8 28.3c-1.1.7-2.3 1.4-3.2 2.3a5 5 0 000 7.6c1 .8 2.2 1.5 3.4 2.2l12.3 7.2 36.3 21.3c2.9 1.7 5.9 2.7 9.3 3zm-62.8-31.6c-.6 2.5-.3 4.8-.4 7 0 1.3-.1 2.7.2 4a8.4 8.4 0 002 3.3c1 1 2.2 1.5 3.4 2.2l15.7 9.2c10.6 6.3 21.3 12.4 31.9 18.9 6.7 4 13.2 4.2 19.8 0l1-.5 36-20.9L364 158c1.5-.9 3-1.9 3.4-3.7.5-3.8.7-7.5-.2-11.7-1.5.7-2.7 1.1-3.8 1.8l-15.8 9-32.5 19c-3.9 2.2-8 3.5-12.5 3.1-3.5-.3-6.5-2-9.4-3.7L247.5 145c-1.7-1-3.4-2.3-5.8-2.8z" fill="#000"/><path d="M216.7 97.6c-.9-.7-1.9-1.2-2.9-1.8L166.2 68c-6.9-4.1-13.4-4.1-20.3 0-15.6 9.2-31.4 18.3-47.1 27.4-1.3.8-2.7 1.5-3.8 2.5a5 5 0 000 8c1 .8 2.1 1.4 3.3 2.1l11.3 6.5 37.3 21.8c2.8 1.7 5.8 2.7 9.4 2.6 3.3.2 6.4-1 9.4-2.8l48.1-28 2.9-1.9c3-2.3 3-6.4 0-8.7zM364.8 132.2l-3-1.8c-15.7-9.1-31.5-18.1-47.2-27.4-6.8-4-13.3-4-20 0-15.6 9.2-31.3 18-46.9 27.1-1.3.7-2.6 1.5-3.8 2.4-2.5 2.1-2.5 5.7 0 7.9 1 .8 2.2 1.5 3.3 2.1l11.2 6.5 37 21.5c2.9 1.6 5.8 2.6 9.4 2.5 3.2.2 6.3-1 9.3-2.8l47.7-27.6 3-1.8c3-2.3 3-6.4 0-8.6zM721.4 79c2.4.4 4.1 1.7 5.9 2.8l45.8 26.4c3 1.7 6 3.3 9.5 3.6 4.5.4 8.6-.9 12.5-3L827.7 90l15.8-9c1.1-.6 2.4-1 3.9-1.7.9 4 .7 7.8.1 11.5-.3 1.8-1.8 2.8-3.3 3.7l-12.9 7.3-36 20.6-1 .5c-6.7 4.1-13.2 3.9-19.9-.1-10.6-6.3-21.3-12.4-32-18.6l-15.8-9c-1.1-.7-2.4-1.3-3.3-2.2-.9-.9-1.7-2-2-3.3-.4-1.2-.3-2.6-.2-4 0-2.1-.3-4.4.3-6.8z" fill="#fff" stroke="#fff" stroke-width="1.3" stroke-miterlimit="10"/><path d="M242.4 143c2.4.4 4 1.7 5.8 2.8l45 26.4c3 1.7 6 3.3 9.4 3.6 4.5.4 8.5-.9 12.3-3L347 154l15.6-9 3.8-1.7c.9 4 .7 7.8.1 11.5-.2 1.8-1.8 2.8-3.2 3.7l-12.7 7.3-35.5 20.6-1 .5c-6.5 4.1-13 3.9-19.5-.1-10.4-6.3-21-12.4-31.5-18.6l-15.6-9c-1-.7-2.3-1.3-3.2-2.2-1-.9-1.7-2-2-3.3-.4-1.2-.3-2.6-.2-4 0-2.1-.3-4.4.3-6.8z" fill="#fff" stroke="#fff" stroke-width="1.3" stroke-miterlimit="10"/><path d="M849 82c0 2.3-.2 4.6 0 6.9 0 3.3-1.5 5.7-4.3 7.4l-15.7 9-34.3 19.5a19.6 19.6 0 01-21.3 0c-15.7-9.2-31.5-18.4-47.4-27.3-5-2.8-7.5-6.4-7-12.2.4-3.4.2-6.8.2-10.2 0-4 1.6-6.7 5.1-8.7l29.9-17 20-11.5a18.3 18.3 0 0119.8 0 7615 7615 0 0049.8 28.8c3.7 2 5.5 4.9 5.2 9.2-.2 2 0 4.1 0 6.2zm-65 28.2a20 20 0 009.4-2.9l47.5-27c1.3-.8 2.6-1.5 3.8-2.4 2.6-2 2.7-5.8.3-7.9-.8-.7-1.8-1.4-2.8-2-16.2-9.3-32.5-18.7-48.7-28.2a17.4 17.4 0 00-18.7.1l-48.4 27.7c-1.2.7-2.3 1.3-3.3 2.2-2.3 2-2.2 5.5.1 7.5 1 .8 2.2 1.4 3.3 2.1l12.2 7 36 21c3 1.6 5.9 2.6 9.3 2.8zm-62.3-31c-.7 2.5-.3 4.7-.4 6.9 0 1.3-.1 2.7.2 3.9a8.2 8.2 0 002 3.3c1 .9 2.2 1.4 3.3 2.1l15.6 9c10.6 6.2 21.2 12.2 31.7 18.5 6.6 4 13 4.2 19.6 0l1-.5 35.7-20.4 12.7-7.3c1.5-.8 3-1.8 3.3-3.6.6-3.7.7-7.4-.2-11.5-1.5.7-2.7 1.1-3.8 1.8l-15.6 8.9-32.3 18.5a20.4 20.4 0 01-12.3 3c-3.5-.3-6.5-1.8-9.4-3.5L727.4 82c-1.7-1-3.3-2.3-5.7-2.7z" fill="#000"/><path d="M843.8 68.7c-1-.7-2-1.2-3-1.7-15.7-9-31.5-17.9-47.2-27-6.8-4-13.3-4-20 0-15.6 9-31.3 17.8-46.9 26.7-1.3.7-2.6 1.4-3.8 2.4-2.5 2-2.5 5.6 0 7.7 1 .8 2.2 1.5 3.3 2.1l11.2 6.4 37 21.2c2.9 1.6 5.8 2.6 9.4 2.5 3.2.2 6.3-1 9.3-2.8L840.8 79l3-1.8c3-2.2 3-6.2 0-8.5z" fill="#fff" stroke="#fff" stroke-width="1.3" stroke-miterlimit="10"/><path d="M952 19c0 2.3-.2 4.6 0 6.9 0 3.3-1.5 5.7-4.4 7.4l-15.8 9-34.5 19.5a20 20 0 01-21.5 0c-15.8-9.2-31.7-18.4-47.7-27.3-5.2-2.8-7.6-6.4-7-12.2.3-3.4 0-6.8 0-10.2 0-4 1.7-6.7 5.2-8.7l30.1-17 20.3-11.5a18.5 18.5 0 0119.9 0l50.2 28.8c3.7 2 5.5 4.9 5.2 9.2-.2 2 0 4.1 0 6.2zm-65.5 28.2c3.3-.1 6.5-1.1 9.5-2.9l47.8-27c1.3-.8 2.7-1.5 3.9-2.4A5 5 0 00948 7a17 17 0 00-2.8-2L896-23.1a17.6 17.6 0 00-18.8.1L828.4 4.6a19 19 0 00-3.2 2.2c-2.3 2-2.3 5.5 0 7.5 1 .8 2.2 1.4 3.4 2.1 4 2.4 8.2 4.7 12.3 7l36.3 21c2.9 1.6 5.9 2.6 9.3 2.8zm-62.8-31c-.6 2.5-.3 4.7-.4 6.9 0 1.3-.1 2.7.2 3.9a8.2 8.2 0 002 3.3c1 .9 2.2 1.4 3.4 2.1l15.7 9c10.6 6.2 21.3 12.2 31.9 18.5 6.7 4 13.2 4.2 19.8 0l1-.5 36-20.4 12.7-7.3c1.5-.8 3-1.8 3.4-3.6.5-3.7.7-7.4-.2-11.5-1.5.7-2.7 1.1-3.8 1.8l-15.8 8.9-32.5 18.5c-3.9 2.2-8 3.5-12.5 3-3.5-.3-6.5-1.8-9.4-3.5L829.5 19c-1.7-1-3.4-2.3-5.8-2.7z" fill="#000"/><path d="M947.7 5.2c-.9-.7-2-1.3-2.9-1.8-16-9.1-32-18.1-48-27.4-7-4-13.5-4-20.5 0-15.7 9.2-31.6 18-47.5 27.1-1.3.7-2.7 1.5-3.8 2.4-2.7 2.1-2.7 5.7 0 7.9 1 .8 2.2 1.5 3.3 2.1l11.4 6.5 37.6 21.5a17 17 0 009.5 2.5c3.3.2 6.4-1 9.4-2.8l48.6-27.6c1-.6 2-1.1 2.9-1.8 3-2.3 3-6.4 0-8.6z" fill="#fff" stroke="#fff" stroke-width="1.3" stroke-miterlimit="10"/><path d="M823.4 16c2.4.4 4.1 1.7 5.9 2.8L875 45.2c3 1.7 6 3.3 9.5 3.6 4.5.4 8.6-.9 12.5-3L929.7 27l15.8-9c1.1-.6 2.4-1 3.9-1.7.9 4 .7 7.8.1 11.5-.3 1.8-1.8 2.8-3.3 3.7l-12.9 7.3-36 20.6-1 .5c-6.7 4.1-13.2 3.9-19.9-.1-10.6-6.3-21.3-12.4-32-18.6l-15.8-9c-1.1-.7-2.4-1.3-3.3-2.2-.9-.9-1.7-2-2-3.3-.4-1.2-.3-2.6-.2-4 0-2.1-.3-4.4.3-6.8z" fill="#fff" stroke="#fff" stroke-width="1.3" stroke-miterlimit="10"/><path d="M478 44.6c0 2.3-.2 4.6 0 6.8 0 3.4-1.5 5.9-4.4 7.5l-15.8 9c-11.5 6.7-23 13.2-34.5 20a19.7 19.7 0 01-21.5 0c-15.8-9.4-31.7-18.7-47.7-27.7-5.2-2.9-7.6-6.5-7-12.4.3-3.4 0-6.8 0-10.3 0-4 1.7-6.8 5.2-8.7l30.1-17.3c6.8-3.9 13.6-7.6 20.3-11.6 6.7-3.9 13.2-3.9 19.9 0A7660 7660 0 00472.8 29c3.7 2.1 5.5 5 5.2 9.3-.2 2 0 4.2 0 6.3zM412.4 73a20 20 0 009.5-2.9l47.8-27.4c1.3-.7 2.7-1.5 3.9-2.4 2.5-2 2.7-5.8.3-8a17 17 0 00-2.8-1.9L422 2a17.5 17.5 0 00-18.8 0l-48.8 28a19 19 0 00-3.2 2.3 5 5 0 000 7.5c1 .9 2.2 1.5 3.4 2.2l12.3 7.1c12 7 24.2 14 36.3 21.2 2.9 1.6 5.9 2.6 9.3 2.8zm-62.8-31.3c-.6 2.5-.3 4.7-.4 7 0 1.3-.1 2.7.2 3.9a8.3 8.3 0 002 3.3c1 .9 2.2 1.5 3.4 2.2l15.7 9 31.9 18.7c6.7 4 13.2 4.3 19.8.1l1-.5 36-20.7 12.7-7.3c1.5-.9 3-1.9 3.4-3.7.5-3.7.7-7.5-.2-11.6-1.5.7-2.7 1.1-3.8 1.8l-15.8 9-32.5 18.7c-3.9 2.2-8 3.5-12.5 3-3.5-.3-6.5-1.8-9.4-3.6l-45.7-26.5c-1.7-1-3.4-2.3-5.8-2.8z" fill="#000"/><path d="M472.7 31.2c-.9-.7-1.9-1.3-2.9-1.8C454 20.3 438 11.3 422.2 2c-6.9-4-13.4-4-20.3 0-15.6 9.2-31.4 18-47.1 27.1-1.3.7-2.7 1.5-3.8 2.4-2.7 2.1-2.6 5.7 0 7.9 1 .8 2.1 1.5 3.3 2.1l11.3 6.5 37.3 21.5c2.8 1.6 5.8 2.6 9.4 2.5 3.3.2 6.4-1 9.4-2.8l48.1-27.6c1-.6 2-1.1 2.9-1.8 3-2.3 3-6.4 0-8.6z" fill="#fff" stroke="#fff" stroke-width="1.3" stroke-miterlimit="10"/><path d="M349.4 42c2.4.4 4 1.7 5.8 2.8l45.5 26.4c3 1.7 6 3.3 9.4 3.6 4.5.4 8.5-.9 12.4-3L454.9 53l15.7-9c1-.6 2.3-1 3.8-1.7.9 4 .7 7.8.1 11.5-.3 1.8-1.8 2.8-3.3 3.7l-12.7 7.3-35.8 20.6-1 .5c-6.6 4.1-13 3.9-19.7-.1-10.5-6.3-21.2-12.4-31.8-18.6l-15.6-9c-1.1-.7-2.4-1.3-3.3-2.2-.9-.9-1.7-2-2-3.3-.4-1.2-.3-2.6-.2-4 0-2.1-.3-4.4.3-6.8z" fill="#fff" stroke="#fff" stroke-width="1.3" stroke-miterlimit="10"/><path d="M1054 83.6c0 2.3-.2 4.6 0 6.8 0 3.4-1.5 5.9-4.4 7.5l-15.8 9c-11.5 6.7-23 13.2-34.5 20a19.7 19.7 0 01-21.5 0c-15.8-9.4-31.7-18.7-47.7-27.7-5.2-2.9-7.6-6.5-7-12.4.3-3.4 0-6.8 0-10.3 0-4 1.7-6.8 5.2-8.7l30.1-17.3c6.8-3.9 13.6-7.6 20.3-11.6 6.7-3.9 13.2-3.9 19.9 0 16.7 9.8 33.4 19.5 50.2 29.1 3.7 2.1 5.5 5 5.2 9.3-.2 2 0 4.2 0 6.3zM988.4 112a20 20 0 009.5-2.9l47.8-27.4c1.3-.7 2.7-1.4 3.9-2.4 2.5-2 2.7-5.8.3-8a17 17 0 00-2.8-1.9L998 41a17.5 17.5 0 00-18.8 0l-48.8 28a19 19 0 00-3.2 2.3 5 5 0 000 7.5c1 .9 2.2 1.5 3.4 2.2l12.3 7.1c12 7 24.2 14 36.3 21.2 2.9 1.6 5.9 2.6 9.3 2.8zm-62.8-31.3c.1 2.5-.3 4.7-.4 7 0 1.3-.1 2.7.2 3.9a8.3 8.3 0 002 3.3c1 1 2.2 1.5 3.4 2.2l15.7 9 32 18.7c6.6 4 13 4.3 19.7.1l1-.5 36-20.7 12.8-7.3c1.5-.9 3-1.9 3.3-3.7a31 31 0 00-.2-11.6c-1.5.7-2.7 1.1-3.8 1.8l-15.8 9-32.5 18.7c-3.9 2.2-8 3.5-12.4 3-3.6-.3-6.5-1.8-9.5-3.5l-45.7-26.6c-1.7-1-3.4-2.3-5.8-2.8z" fill="#000"/><path d="M1048.8 71.2l-3-1.8c-15.7-9.1-31.5-18.1-47.2-27.4-6.8-4-13.3-4-20 0-15.6 9.2-31.3 18-46.9 27.1-1.3.7-2.6 1.5-3.8 2.4-2.5 2.1-2.5 5.7 0 7.9 1 .8 2.2 1.5 3.3 2.1l11.2 6.5 37 21.5c2.9 1.6 5.8 2.6 9.4 2.5 3.2.2 6.3-1 9.3-2.8l47.7-27.6 3-1.8c3-2.3 3-6.4 0-8.6z" fill="#fff" stroke="#fff" stroke-width="1.3" stroke-miterlimit="10"/><path d="M979 65.3c8.8-5.4 16.7-3.5 21.2 1 4.4 4.6 4.7 11-4.1 16.5-9 5.6-16.7 3.9-21.3-.7-4.5-4.7-4.8-11.2 4.2-16.8zm-1.6 15.1c4 4 10 4.2 16.5.1 6.3-3.9 7.6-8.7 3.7-12.6-3.9-4-10.1-4.2-16.4-.3-6.5 4-7.8 8.8-3.8 12.8z" fill="#000"/><path d="M1128.4 114c2.5.4 4.1 1.7 6 2.8l46.1 26.4c3 1.7 6 3.3 9.6 3.6a21 21 0 0012.6-3l32.8-18.7 16-9c1.1-.6 2.3-1 3.9-1.7.9 4 .7 7.8.1 11.5-.3 1.8-1.8 2.8-3.3 3.7l-13 7.3-36.4 20.6-1 .5a18 18 0 01-20-.1c-10.6-6.3-21.5-12.4-32.2-18.6l-16-9c-1-.7-2.3-1.3-3.3-2.2-.9-.9-1.7-2-2-3.3-.4-1.2-.3-2.6-.2-4 0-2.1-.3-4.4.3-6.8z" fill="#fff" stroke="#fff" stroke-width="1.3" stroke-miterlimit="10"/><path d="M861 5.5c-.9-.5-.8-1 .2-1.5L889-7c.9-.5 1.7-.4 2.4 0l1.3.8c.7.4.8 1 .4 1.5l-13.8 17.6 29.3-8.3c.8-.2 1.7-.1 2.4.3l1.2.8c.8.4.9.9.3 1.4l-18.5 16.7c-.7.6-1.6.6-2.5.1l-.4-.2c-.7-.5-.8-1-.2-1.5L907 7.4l-28 7.9c-1 .2-1.7.1-2.4-.3l-1-.6c-.7-.4-.8-.9-.4-1.4l13.1-17-24.6 10c-.8.3-1.6.2-2.4-.2l-.4-.3zM1257 117c0 2.3-.2 4.6 0 6.9 0 3.3-1.5 5.7-4.3 7.4l-15.7 9-34.3 19.5a19.6 19.6 0 01-21.3 0c-15.7-9.2-31.5-18.4-47.4-27.3-5-2.8-7.5-6.4-7-12.2.4-3.4.2-6.8.2-10.2 0-4 1.6-6.7 5.1-8.7l29.9-17 20-11.5a18.3 18.3 0 0119.8 0l49.8 28.8c3.7 2 5.5 4.9 5.2 9.2-.2 2 0 4.1 0 6.2zm-65 28.2a20 20 0 009.4-2.9l47.5-27c1.3-.8 2.6-1.5 3.8-2.4 2.6-2 2.7-5.8.3-7.9-.8-.7-1.8-1.4-2.8-2-16.2-9.3-32.5-18.7-48.7-28.2a17.4 17.4 0 00-18.7.1l-48.4 27.7c-1.2.7-2.3 1.3-3.3 2.2-2.3 2-2.2 5.5.1 7.5 1 .8 2.2 1.4 3.3 2.1l12.2 7 36 21c3 1.6 5.9 2.6 9.3 2.8zm-62.3-31c-.7 2.5-.4 4.7-.4 6.9 0 1.3-.1 2.7.2 3.9a8.2 8.2 0 002 3.3c1 .9 2.2 1.4 3.3 2.1l15.6 9c10.6 6.2 21.2 12.2 31.7 18.5 6.6 4 13 4.2 19.6 0l1-.5 35.7-20.4 12.7-7.3c1.5-.8 3-1.8 3.3-3.6.6-3.7.7-7.4-.2-11.5-1.5.7-2.7 1.1-3.8 1.8l-15.6 8.9-32.3 18.5a20.4 20.4 0 01-12.3 3c-3.5-.3-6.5-1.8-9.4-3.5l-45.4-26.3c-1.7-1-3.3-2.3-5.7-2.7z" fill="#000"/><path d="M1251.8 103.7l-2.9-1.7c-15.6-9-31.3-17.9-46.9-27-6.8-4-13.1-4-20 0-15.3 9-30.8 17.8-46.3 26.7-1.3.7-2.6 1.4-3.8 2.4-2.5 2-2.5 5.6 0 7.7 1 .8 2.2 1.5 3.3 2.1l11.1 6.4 36.7 21.2c2.8 1.6 5.8 2.6 9.3 2.5 3.2.2 6.3-1 9.2-2.8L1249 114c1-.6 2-1.1 2.8-1.8 3-2.2 3-6.2 0-8.5z" fill="#fff" stroke="#fff" stroke-width="1.3" stroke-miterlimit="10"/><path d="M1180.2 115.5c-6.3-3.5-8.6-9.3.5-15.2a24.8 24.8 0 0125.1-1.4c4.4 2.5 7.2 6.3 4.1 10.8-.4.7-1.4.8-2.4.4l-.5-.1c-.9-.4-1-.8-.7-1.5 1.8-3 .7-5.7-3-7.9a19.2 19.2 0 00-19.6 1.4c-6.4 4.1-6.6 8.6-.9 11.8 3.9 2.2 8.7 2.7 13.6 1.2 1-.3 1.8-.2 2.4.4l.3.2c.7.6.4 1.3-1 1.7-7.1 2.1-13.7.6-18-1.8z" fill="#000"/><path d="M1343.7 165.2c-.9-.7-1.9-1.3-2.9-1.8-15.8-9.1-31.8-18.1-47.6-27.4-6.9-4-13.4-4-20.3 0-15.6 9.2-31.4 18-47.1 27.1-1.3.7-2.7 1.5-3.8 2.4-2.7 2.1-2.7 5.7 0 7.9 1 .8 2.1 1.5 3.3 2.1l11.3 6.5 37.3 21.5c2.8 1.6 5.8 2.6 9.4 2.5 3.3.2 6.4-1 9.4-2.8l48.1-27.6c1-.6 2-1.1 2.9-1.8 3-2.3 3-6.4 0-8.6z" fill="#fff" stroke="#fff" stroke-width="1.3" stroke-miterlimit="10"/><path d="M1348 178.6c0 2.3-.2 4.6 0 6.8 0 3.4-1.5 5.9-4.3 7.5l-15.7 9c-11.4 6.7-22.9 13.2-34.3 20a19.5 19.5 0 01-21.3 0c-15.7-9.4-31.5-18.7-47.4-27.7-5-2.9-7.5-6.5-7-12.4.4-3.4.2-6.8.2-10.3 0-4 1.6-6.8 5.1-8.7l29.9-17.3c6.7-3.9 13.4-7.6 20-11.6 6.7-3.9 13.2-3.9 19.8 0a7438 7438 0 0049.8 29.1c3.7 2.1 5.5 5 5.2 9.3-.2 2 0 4.2 0 6.3zm-65 28.4c3.3 0 6.4-1.1 9.4-2.9l47.5-27.4c1.3-.7 2.6-1.5 3.8-2.4 2.6-2 2.7-5.8.3-8-.8-.7-1.8-1.3-2.8-1.9l-48.7-28.5a17.3 17.3 0 00-18.7 0l-48.4 28c-1.2.7-2.3 1.4-3.3 2.3a5 5 0 00.1 7.5c1 .9 2.2 1.5 3.3 2.2l12.2 7.1c12 7 24.1 14 36 21.2 3 1.6 5.9 2.6 9.3 2.8zm-62.3-31.3c-.7 2.5-.4 4.7-.4 7 0 1.3-.1 2.7.2 3.9a8.3 8.3 0 002 3.3c1 .9 2.2 1.5 3.3 2.2l15.6 9 31.7 18.7c6.6 4 13 4.3 19.6.1l1-.5 35.7-20.7 12.7-7.3c1.5-.9 3-1.9 3.3-3.7.6-3.7.7-7.5-.2-11.6-1.5.7-2.7 1.1-3.8 1.8l-15.6 9-32.3 18.7a20.2 20.2 0 01-12.3 3 23 23 0 01-9.4-3.6l-45.4-26.5c-1.7-1-3.3-2.3-5.7-2.8z" fill="#000"/><path d="M1283.9 180.5c-.3 1-1 1.1-2.3.4l-.7-.4c-.7-.4-.9-.8-.7-1.3l1.8-8.9-2-1-4.4-2.6-7.7 5c-.8.4-1.7.4-2.5 0l-.4-.3c-.8-.5-.8-1 0-1.5l22.4-14.3c.8-.5 1.6-.5 2.4 0l6.2 3.5c8 4.5 10.1 8 4 12-4.5 2.8-9 2.9-14.4.8l-1.7 8.6zm-1.5-12.8c5.8 3.3 10 4.6 14.6 1.7 4.6-3 2.2-5.5-3.5-8.8l-4.5-2.5-11 7 4.5 2.6zM1211 12c0 2.3-.2 4.6 0 6.9 0 3.3-1.5 5.7-4.4 7.4l-15.8 9-34.5 19.5a20 20 0 01-21.5 0c-15.8-9.2-31.7-18.4-47.7-27.3-5.1-2.8-7.6-6.4-7-12.2.3-3.4 0-6.8 0-10.2 0-4 1.7-6.7 5.2-8.7l30.1-17 20.3-11.5a18.5 18.5 0 0119.9 0l50.2 28.8c3.7 2 5.5 4.9 5.2 9.2-.2 2 0 4.1 0 6.2zm-65.5 28.2c3.3 0 6.5-1.1 9.5-2.8l47.8-27.2c1.3-.7 2.7-1.4 3.9-2.3a5 5 0 00.3-7.9 17 17 0 00-2.8-2L1155-30.1a17.6 17.6 0 00-18.8.1l-48.8 27.7c-1.1.7-2.3 1.3-3.3 2.2-2.2 2-2.2 5.5.2 7.5 1 .8 2.1 1.4 3.3 2.1 4 2.4 8.2 4.7 12.3 7l36.3 21c2.9 1.6 5.9 2.6 9.3 2.8zm-62.8-31c.1 2.5-.3 4.7-.4 6.9 0 1.3-.1 2.7.2 4a8.2 8.2 0 002 3.2c1 .9 2.2 1.5 3.4 2.1l15.7 9c10.7 6.2 21.4 12.2 32 18.5 6.6 4 13 4.2 19.7 0l1-.5 36-20.4 12.8-7.3c1.5-.8 3-1.8 3.3-3.6.5-3.7.7-7.4-.2-11.5-1.5.7-2.7 1.1-3.8 1.8l-15.8 8.9-32.5 18.5c-3.9 2.2-8 3.5-12.4 3-3.5-.3-6.5-1.8-9.5-3.5L1088.5 12c-1.7-1-3.4-2.3-5.8-2.7z" fill="#000"/><path d="M1205.7-1.4c-.9-.7-1.9-1.2-2.9-1.8L1155.3-31c-6.9-4.1-13.4-4.1-20.3 0-15.6 9.2-31.4 18.3-47.1 27.4-1.3.8-2.7 1.5-3.8 2.5a5 5 0 000 8c1 .8 2.1 1.4 3.3 2.1l11.3 6.5 37.3 21.8c2.8 1.7 5.8 2.7 9.4 2.6 3.3.2 6.4-1 9.4-2.8l48.1-28 2.9-1.9c3-2.3 3-6.4 0-8.7z" fill="#fff" stroke="#fff" stroke-width="1.3" stroke-miterlimit="10"/><path d="M1142.2 9.2c-.8.5-1.7.4-2.2-.3l-7.4-11.8c-.3-.6-.2-1 .4-1.5l1.2-.8a3 3 0 012.2-.6l21 1.5c1.4 0 1.8.6 1 1.1-1 .8-1.5 1-2.6 1l-19.6-1.4 6.8 11c.4.7 0 1.1-.8 1.8zM638 14c0 2.4-.2 4.7 0 7a8 8 0 01-4.4 7.6l-15.8 9.1-34.5 20a19.6 19.6 0 01-21.5.1c-15.8-9.4-31.7-18.8-47.7-28-5.2-2.8-7.6-6.5-7-12.4.3-3.5 0-7 0-10.4 0-4 1.7-6.9 5.2-8.9 10.1-5.7 20.1-11.6 30.1-17.4L562.7-31c6.7-4 13.2-4 19.9 0l50.2 29.3c3.7 2.2 5.5 5 5.2 9.4-.2 2.2 0 4.3 0 6.4zm-65.5 28.8c3.3 0 6.5-1.1 9.5-2.9l47.8-27.7c1.3-.7 2.7-1.5 3.9-2.4 2.5-2 2.7-5.9.3-8a17 17 0 00-2.8-2L582-29.1a17.3 17.3 0 00-18.8.1L514.4-.7a19 19 0 00-3.2 2.3 5 5 0 000 7.6c1 .8 2.2 1.5 3.4 2.2l12.3 7.2 36.3 21.3c2.9 1.7 5.9 2.7 9.3 3zm-62.8-31.6c.1 2.5-.3 4.8-.4 7 0 1.3-.1 2.7.2 4a8.4 8.4 0 002 3.3c1 1 2.2 1.5 3.4 2.2l15.7 9.2c10.7 6.3 21.4 12.5 32 18.9 6.6 4 13 4.3 19.7 0l1-.5 36-20.9L632 27c1.5-.9 3-1.9 3.3-3.7.5-3.8.7-7.5-.2-11.7-1.5.7-2.7 1.1-3.8 1.8l-15.8 9-32.5 19c-3.9 2.2-8 3.5-12.4 3.1-3.6-.3-6.5-2-9.5-3.7L515.5 14c-1.7-1-3.4-2.3-5.8-2.8z" fill="#000"/><path d="M633.7 1.2c-.9-.7-2-1.3-2.9-1.8-16-9.1-32-18.1-48-27.4-7-4-13.5-4-20.5 0-15.7 9.2-31.6 18-47.5 27.1-1.3.7-2.7 1.5-3.8 2.4-2.7 2.1-2.7 5.7 0 7.9 1 .8 2.2 1.5 3.3 2.1l11.4 6.5 37.6 21.5a17 17 0 009.5 2.5c3.3.2 6.4-1 9.4-2.8l48.6-27.6c1-.6 2-1.1 2.9-1.8 3-2.3 3-6.4 0-8.6z" fill="#fff" stroke="#fff" stroke-width="1.3" stroke-miterlimit="10"/><path d="M509.4 12c2.2.9 4 1.7 5.8 2.7l45.5 25.9c3 1.7 6 3.2 9.4 3.5 4.5.4 8.5-.8 12.4-3l32.4-18.2c5.2-3 10.4-6 15.7-8.8 1-.6 2.3-1 3.8-1.7.9 4 .7 7.6.1 11.3-.3 1.7-1.8 2.7-3.3 3.5l-12.7 7.2-35.8 20.1-1 .6c-6.6 4-13 3.8-19.7-.1-10.5-6.2-21.2-12.2-31.8-18.2l-15.6-8.9c-1.1-.6-2.4-1.2-3.3-2.1a8 8 0 01-2-3.2c-.4-1.2-.3-2.6-.3-3.9 0-2.1-.2-4.3.4-6.7z" fill="#fff" stroke="#fff" stroke-width="1.3" stroke-miterlimit="10"/><path d="M638 14c0 2.4-.2 4.7 0 7a8 8 0 01-4.4 7.6l-15.8 9.1-34.5 20a19.6 19.6 0 01-21.5.1c-15.8-9.4-31.7-18.8-47.7-28-5.2-2.8-7.6-6.5-7-12.4.3-3.5 0-7 0-10.4 0-4 1.7-6.9 5.2-8.9 10.1-5.7 20.1-11.6 30.1-17.4L562.7-31c6.7-4 13.2-4 19.9 0l50.2 29.3c3.7 2.2 5.5 5 5.2 9.4-.2 2.2 0 4.3 0 6.4zm-65.5 28.8c3.3 0 6.5-1.1 9.5-2.9l47.8-27.7c1.3-.7 2.7-1.5 3.9-2.4 2.5-2 2.7-5.9.3-8a17 17 0 00-2.8-2L582-29.1a17.3 17.3 0 00-18.8.1L514.4-.7a19 19 0 00-3.2 2.3 5 5 0 000 7.6c1 .8 2.2 1.5 3.4 2.2l12.3 7.2 36.3 21.3c2.9 1.7 5.9 2.7 9.3 3zm-62.8-31.6c.1 2.5-.3 4.8-.4 7 0 1.3-.1 2.7.2 4a8.4 8.4 0 002 3.3c1 1 2.2 1.5 3.4 2.2l15.7 9.2c10.7 6.3 21.4 12.5 32 18.9 6.6 4 13 4.3 19.7 0l1-.5 36-20.9L632 27c1.5-.9 3-1.9 3.3-3.7.5-3.8.7-7.5-.2-11.7-1.5.7-2.7 1.1-3.8 1.8l-15.8 9-32.5 19c-3.9 2.2-8 3.5-12.4 3.1-3.6-.3-6.5-2-9.5-3.7L515.5 14c-1.7-1-3.4-2.3-5.8-2.8z" fill="#000"/><path d="M633.7 1.2c-.9-.7-2-1.3-2.9-1.8-16-9.1-32-18.1-48-27.4-7-4-13.5-4-20.5 0-15.7 9.2-31.6 18-47.5 27.1-1.3.7-2.7 1.5-3.8 2.4-2.7 2.1-2.7 5.7 0 7.9 1 .8 2.2 1.5 3.3 2.1l11.4 6.5 37.6 21.5a17 17 0 009.5 2.5c3.3.2 6.4-1 9.4-2.8l48.6-27.6c1-.6 2-1.1 2.9-1.8 3-2.3 3-6.4 0-8.6z" fill="#fff" stroke="#fff" stroke-width="1.3" stroke-miterlimit="10"/><path d="M509.4 12c2.2.9 4 1.7 5.8 2.7l45.5 25.9c3 1.7 6 3.2 9.4 3.5 4.5.4 8.5-.8 12.4-3l32.4-18.2c5.2-3 10.4-6 15.7-8.8 1-.6 2.3-1 3.8-1.7.9 4 .7 7.6.1 11.3-.3 1.7-1.8 2.7-3.3 3.5l-12.7 7.2-35.8 20.1-1 .6c-6.6 4-13 3.8-19.7-.1-10.5-6.2-21.2-12.2-31.8-18.2l-15.6-8.9c-1.1-.6-2.4-1.2-3.3-2.1a8 8 0 01-2-3.2c-.4-1.2-.3-2.6-.3-3.9 0-2.1-.2-4.3.4-6.7z" fill="#fff" stroke="#fff" stroke-width="1.3" stroke-miterlimit="10"/><path d="M492.6 113.1c-.8-.4-.8-1 0-1.5L513.3 98l-6.5-3.6c-.8-.5-.8-1 0-1.5l.1-.1c.8-.5 1.6-.6 2.5-.1l16 9c.8.4.8 1 0 1.4l-.1.1c-.8.5-1.7.6-2.5.1l-6.5-3.6-21 13.7c-.7.5-1.6.5-2.4 0l-.4-.2zM774.3 81.2c-5-2.3-7-5.6-5.8-9 .3-.6 1.3-.9 2.3-.6l.5.1c.7.3 1 .6.9 1.3-.6 2.6.6 4.6 4.4 6.3 4.7 2.2 9.4 2.1 12.3 0 3-2.4 2.1-4.3-3.5-6.9l-.7-.3c-.9-.4-1-1-.2-1.5a2 2 0 012.3-.3l.3.2c5 2.3 8.8 2.3 11.4.3 2.8-2.1 2-4.4-2.5-6.5-3-1.4-5.9-1.8-9.8-1-1.1.2-1.7.2-2.3-.2l-.3-.2c-.8-.5-.6-1.1.5-1.5 4.7-1.4 10-.9 14.3 1.1 6.2 2.9 7.4 6.5 3.5 9.6-2.9 2.2-6.7 2.7-11 1.4 4 2.3 4.1 4.8.8 7.3-4 3.1-11 3.4-17.4.4zM553.4 8.3c-.8-.5-.8-1 0-1.5l23-14c.7-.4 1.6-.4 2.4 0l5 3c10.6 6.4 11 11.4 2.3 16.7-8.7 5.3-17 5.1-27.7-1.3l-5-3zm7.7 1.4c8.5 5 15 5.4 22 1 7.1-4.2 6.6-8.2-1.9-13.2l-3.3-2-20.2 12.2 3.4 2zM1371 44.6c0 2.3-.2 4.6 0 6.8 0 3.4-1.5 5.9-4.4 7.5l-15.8 9c-11.5 6.7-23 13.2-34.5 20a19.7 19.7 0 01-21.5 0c-15.8-9.4-31.7-18.7-47.7-27.7-5.1-2.9-7.6-6.5-7-12.4.3-3.4 0-6.8 0-10.3 0-4 1.7-6.8 5.2-8.7l30.1-17.3c6.8-3.9 13.6-7.6 20.3-11.6 6.7-3.9 13.2-3.9 19.9 0 16.7 9.8 33.4 19.5 50.2 29.1 3.7 2.1 5.5 5 5.2 9.3-.2 2 0 4.2 0 6.3zM1305.4 73a20 20 0 009.5-2.9l47.8-27.4c1.3-.7 2.7-1.4 3.9-2.4 2.5-2 2.7-5.8.3-8a17 17 0 00-2.8-1.9L1315 2a17.5 17.5 0 00-18.8 0l-48.8 28c-1.1.7-2.3 1.4-3.3 2.3a5 5 0 00.2 7.5c1 .9 2.1 1.5 3.3 2.2l12.3 7.1c12 7 24.2 14 36.3 21.2 2.9 1.6 5.9 2.6 9.3 2.8zm-62.8-31.3c.1 2.5-.3 4.7-.4 7 0 1.3-.1 2.7.2 3.9a8.3 8.3 0 002 3.3c1 1 2.2 1.5 3.4 2.2l15.7 9 32 18.7c6.6 4 13 4.3 19.7.1l1-.5 36-20.7 12.8-7.3c1.5-.9 3-1.9 3.3-3.7a31 31 0 00-.2-11.6c-1.5.7-2.7 1.1-3.8 1.8l-15.8 9-32.5 18.7c-3.9 2.2-8 3.5-12.4 3-3.5-.3-6.5-1.8-9.5-3.5l-45.7-26.6c-1.7-1-3.4-2.3-5.8-2.8z" fill="#000"/><path d="M1365.7 30.7c-.9-.7-1.9-1.2-2.9-1.7-15.8-9-31.8-17.9-47.6-27-6.9-4-13.4-4-20.3 0-15.6 9-31.4 17.8-47.1 26.7-1.3.7-2.7 1.4-3.8 2.4-2.7 2-2.7 5.6 0 7.7 1 .8 2.1 1.5 3.3 2.1l11.3 6.4 37.3 21.2c2.8 1.6 5.8 2.6 9.4 2.5 3.3.2 6.4-1 9.4-2.8l48.1-27.2c1-.6 2-1.1 2.9-1.8 3-2.2 3-6.2 0-8.5z" fill="#fff" stroke="#fff" stroke-width="1.3" stroke-miterlimit="10"/><path d="M1242.4 42c2.2.9 4 1.7 5.8 2.7l45.5 25.9c3 1.7 6 3.2 9.4 3.5 4.5.4 8.5-.8 12.4-3l32.4-18.2c5.2-3 10.4-6 15.7-8.8 1-.6 2.3-1 3.8-1.7.9 4 .7 7.6.1 11.3-.3 1.7-1.8 2.7-3.3 3.5l-12.7 7.2-35.8 20.1-1 .6c-6.6 4-13 3.8-19.7-.1-10.5-6.2-21.2-12.2-31.8-18.2l-15.6-8.9c-1.1-.6-2.4-1.2-3.3-2.1-.9-.9-1.7-2-2-3.2-.4-1.2-.3-2.6-.3-3.9 0-2.1-.2-4.3.4-6.7z" fill="#fff" stroke="#fff" stroke-width="1.3" stroke-miterlimit="10"/><path d="M1371 44.6c0 2.3-.2 4.6 0 6.8 0 3.4-1.5 5.9-4.4 7.5l-15.8 9c-11.5 6.7-23 13.2-34.5 20a19.7 19.7 0 01-21.5 0c-15.8-9.4-31.7-18.7-47.7-27.7-5.1-2.9-7.6-6.5-7-12.4.3-3.4 0-6.8 0-10.3 0-4 1.7-6.8 5.2-8.7l30.1-17.3c6.8-3.9 13.6-7.6 20.3-11.6 6.7-3.9 13.2-3.9 19.9 0 16.7 9.8 33.4 19.5 50.2 29.1 3.7 2.1 5.5 5 5.2 9.3-.2 2 0 4.2 0 6.3zM1305.4 73a20 20 0 009.5-2.9l47.8-27.4c1.3-.7 2.7-1.4 3.9-2.4 2.5-2 2.7-5.8.3-8a17 17 0 00-2.8-1.9L1315 2a17.5 17.5 0 00-18.8 0l-48.8 28c-1.1.7-2.3 1.4-3.3 2.3a5 5 0 00.2 7.5c1 .9 2.1 1.5 3.3 2.2l12.3 7.1c12 7 24.2 14 36.3 21.2 2.9 1.6 5.9 2.6 9.3 2.8zm-62.8-31.3c.1 2.5-.3 4.7-.4 7 0 1.3-.1 2.7.2 3.9a8.3 8.3 0 002 3.3c1 1 2.2 1.5 3.4 2.2l15.7 9 32 18.7c6.6 4 13 4.3 19.7.1l1-.5 36-20.7 12.8-7.3c1.5-.9 3-1.9 3.3-3.7a31 31 0 00-.2-11.6c-1.5.7-2.7 1.1-3.8 1.8l-15.8 9-32.5 18.7c-3.9 2.2-8 3.5-12.4 3-3.5-.3-6.5-1.8-9.5-3.5l-45.7-26.6c-1.7-1-3.4-2.3-5.8-2.8z" fill="#000"/><path d="M1366.7 31.2c-.9-.7-1.9-1.3-2.9-1.8-15.8-9.1-31.8-18.1-47.6-27.4-6.9-4-13.4-4-20.3 0-15.6 9.2-31.4 18-47.1 27.1-1.3.7-2.7 1.5-3.8 2.4-2.7 2.1-2.7 5.7 0 7.9 1 .8 2.1 1.5 3.3 2.1l11.3 6.5 37.3 21.5c2.8 1.6 5.8 2.6 9.4 2.5 3.3.2 6.4-1 9.4-2.8l48.1-27.6c1-.6 2-1.1 2.9-1.8 3-2.3 3-6.4 0-8.6z" fill="#fff" stroke="#fff" stroke-width="1.3" stroke-miterlimit="10"/><path d="M1243.4 43c2.2.9 4 1.7 5.8 2.7l45.5 25.9c3 1.7 6 3.2 9.4 3.5 4.5.4 8.5-.8 12.4-3l32.4-18.2c5.2-3 10.4-6 15.7-8.8 1-.6 2.3-1 3.8-1.7.9 4 .7 7.6.1 11.3-.3 1.7-1.8 2.7-3.3 3.5l-12.7 7.2-35.8 20.1-1 .6c-6.6 4-13 3.8-19.7-.1-10.5-6.2-21.2-12.2-31.8-18.2l-15.6-8.9c-1.1-.6-2.4-1.2-3.3-2.1-.9-.9-1.7-2-2-3.2-.4-1.2-.3-2.6-.3-3.9 0-2.1-.2-4.3.4-6.7z" fill="#fff" stroke="#fff" stroke-width="1.3" stroke-miterlimit="10"/><path d="M1287.5 43.9c-.8-.5-.8-1 0-1.5l5.7-4 5.6-16.5c.3-.8 1.3-1 2.3-.5l.7.3c.7.4.9.8.7 1.4l-5 14.1 22.7-4.8c.9-.2 1.6 0 2.3.3l.7.3c1 .5.8 1.2-.5 1.5l-26.5 5.5-5.8 4c-.7.5-1.6.5-2.4.1l-.5-.2zM1141 191c0 2.3-.2 4.6 0 6.9 0 3.3-1.5 5.7-4.3 7.4l-15.7 9-34.3 19.5a19.6 19.6 0 01-21.3 0c-15.7-9.2-31.5-18.4-47.4-27.3-5-2.8-7.5-6.4-7-12.2.4-3.4.2-6.8.2-10.2 0-4 1.6-6.7 5.1-8.7l29.9-17 20-11.5a18.3 18.3 0 0119.8 0l49.8 28.8c3.7 2 5.5 4.9 5.2 9.2-.2 2 0 4.1 0 6.2zm-65 28.2a20 20 0 009.4-2.9l47.5-27c1.3-.8 2.6-1.5 3.8-2.4 2.6-2 2.7-5.8.3-7.9-.8-.7-1.8-1.4-2.8-2-16.2-9.3-32.5-18.7-48.7-28.2a17.4 17.4 0 00-18.7.1l-48.4 27.7c-1.2.7-2.3 1.3-3.3 2.2-2.3 2-2.2 5.5.1 7.5 1 .8 2.2 1.4 3.3 2.1l12.2 7 36 21c3 1.6 5.9 2.6 9.3 2.8zm-62.3-31c-.7 2.5-.4 4.7-.4 6.9 0 1.3-.1 2.7.2 3.9a8.2 8.2 0 002 3.3c1 .9 2.2 1.4 3.3 2.1l15.6 9c10.6 6.2 21.2 12.2 31.7 18.5 6.6 4 13 4.2 19.6 0l1-.5 35.7-20.4 12.7-7.3c1.5-.8 3-1.8 3.3-3.6.6-3.7.7-7.4-.2-11.5-1.5.7-2.7 1.1-3.8 1.8l-15.6 8.9-32.3 18.5a20.4 20.4 0 01-12.3 3c-3.5-.3-6.5-1.8-9.4-3.5l-45.4-26.3c-1.7-1-3.3-2.3-5.7-2.7z" fill="#000"/><path d="M1136.8 177.7c-1-.7-2-1.2-3-1.7-15.7-9-31.5-17.9-47.2-27-6.8-4-13.3-4-20 0-15.6 9-31.3 17.8-46.9 26.7-1.3.7-2.6 1.4-3.8 2.4-2.5 2-2.5 5.6 0 7.7 1 .8 2.2 1.5 3.3 2.1l11.3 6.4 37 21.2c2.8 1.6 5.7 2.6 9.3 2.5 3.2.2 6.3-1 9.3-2.8l47.7-27.2 3-1.8c3-2.2 3-6.2 0-8.5z" fill="#fff" stroke="#fff" stroke-width="1.3" stroke-miterlimit="10"/><path d="M1063 190.7c-6-3.6-7.8-7.9-3.4-10.6 3.2-2 7.6-1.9 12.3 0-2.8-2.7-2.8-5.2.3-7.1 4.3-2.7 11.1-1.7 17 1.8 5.8 3.5 7.6 7.5 3.3 10.2-3.2 2-7.4 2-11.9.3 3.2 2.8 3.3 5.4.2 7.4-4.5 2.7-11.6 1.6-17.7-2zm2.5-1.5c4.7 2.8 9.6 3.4 12.5 1.7 3-1.8 1.7-4.8-2.9-7.5-4.6-2.8-9.6-3.5-12.5-1.7-3 1.8-1.7 4.8 2.9 7.5zm23.9-5.8c2.8-1.7 1.7-4.5-2.7-7.1-4.4-2.7-9-3.3-11.9-1.5-2.8 1.7-1.8 4.6 2.6 7.2 4.3 2.6 9.1 3.2 12 1.4zM874 205.8c0 2-.2 4.1 0 6.2.3 4-1.7 6.7-5.2 8.6l-12 6.7c-12.1 7-24.3 14-36.6 20.9a23.9 23.9 0 01-10 3.7c-4.6.4-8.7-.7-12.6-3l-20.3-11.5-85.8-48.5-56-31.8-2-1.1a8.4 8.4 0 01-4.4-8v-11.2c-.3-5.1 1.7-8.5 6.3-11 8-4.2 15.8-9 23.8-13.4l23.3-13.2 2-1.2c7-4.1 14-4 21 .1l31.8 18 72.4 41 58 32.8 2.9 1.8a7 7 0 013.3 6.2v7.9zm-242.3-66.5c-.8 2.8-.3 5.2-.5 7.6-.3 3.9 1.3 6.2 4.8 8 10 5.5 19.9 11.3 29.8 16.9l75.8 42.9 57 32.3a19 19 0 008 2.7c4 .4 7.8-.6 11.4-2.7 12-7 24-13.7 36.1-20.6l14.4-8.1c1.7-1 3-2.3 3.1-4.4.2-3.3.5-6.7-.3-10.5-1.6.8-3 1.3-4.2 2-16 9-32.1 18-48 27.2a19.9 19.9 0 01-21.6 0c-10.8-6.3-21.8-12.3-32.7-18.5L680 166l-44-25c-1.3-.7-2.7-1.1-4.3-1.8z" fill="#000"/><path d="M869.2 201.2a108045.2 108045.2 0 01-51.1 29.6c-2.8 1.6-5.7 3-9 3.2-4 .2-7.5-1-10.8-3L772 216.1l-71.4-41-63.6-36.4c-1-.5-2-1.1-2.9-1.8-3-2.5-3-6.1.4-8.5 1.1-.8 2.3-1.4 3.4-2l40-23 8.8-5c2.7-1.6 5.5-2.5 8.3-2.4 3.5 0 6.3 1 9 2.5l29 16.7 72.5 41.5 60.6 34.8c1 .5 2 1 3 1.7 2.4 2 2.4 5.9 0 8z" fill="#fff" stroke="#fff" stroke-width="1.3" stroke-miterlimit="10"/><path d="M772.4 205.3c0-.3.3-.5.8-.3h.1c.4.1.5.2.5.6 0 .8.7 1.6 1.7 2.3 1.5.9 3 1 3.8.5 2.1-1.4-5.3-4-2.3-6 1.4-.9 3.7-.6 5.5.6 1.3.7 2 1.8 2 2.7 0 .3-.3.5-.7.4h-.2c-.3-.2-.4-.3-.5-.6-.1-.7-.6-1.3-1.5-1.9-1.3-.8-2.6-1-3.4-.5-2 1.4 5.4 4 2.3 6-1.4 1-3.8.7-6-.6-1.5-.9-2.3-2.2-2.1-3.2zM780.3 211.8c-.3-.2-.4-.5 0-.7l9.4-6.3c.3-.2.6-.2 1 0 .4.3.4.5.1.7l-3.7 2.5c1.3-.4 3.1-.4 4.7.5 2.3 1.4 2.3 3-.2 4.7l-3.7 2.5c-.3.2-.7.2-1 0h-.2c-.3-.3-.3-.5 0-.7l3.6-2.5c2-1.3 2-2.4.2-3.5-1.8-1-3.7-.8-5.7.5l-3.4 2.3c-.3.2-.6.2-1 0h-.1zM798.6 210.6c.4-.3 1-.3 1.4 0 .4.2.5.6.1.8-.4.3-1 .3-1.4 0-.4-.2-.4-.6 0-.8zm-8.9 6.2l6.9-4.7c.3-.2.6-.2 1 0h.1c.3.3.3.5 0 .7l-6.8 4.6c-.3.3-.7.3-1 0h-.2c-.3-.2-.3-.4 0-.6zM793.5 219.6c-.4-.2-.4-.4 0-.6l6.4-4.4-.7-.4c-.3-.2-.3-.4 0-.6.2-.2.6-.2.9 0l.7.4.3-.2c1.6-1 3.3-1 5.2 0l.7.5c.4.2.3.4 0 .6h-1l-.5-.4c-1.1-.7-2.2-.7-3.2 0l-.3.2 2 1.2c.3.2.3.4 0 .6-.2.1-.6.2-1 0l-2-1.2-6.4 4.4c-.3.2-.6.2-1 0l-.1-.1zM801.3 224.3c-2.1-1.3-2.1-2.4.3-4l3.7-2.5-.7-.5c-.4-.2-.4-.4-.1-.6.3-.2.6-.2.9 0l.8.5 1-.7a1 1 0 011 0h.2c.4.1.5.4.1.6l-1.1.8 2.1 1.2c.4.2.4.4.1.6-.3.2-.6.2-1 0l-2-1.3-3.8 2.5c-2.3 1.6-1.5 2.3-.3 3 .3.1.4.3.2.5-.3.2-.6.3-1 0a4 4 0 01-.4-.1zM144 112.5c-.8-.4-1-.8-1-1.3-.4-5.3 1.8-10.1 6-14 4-3.9 10-6.6 17-7.9.9-.1 1.4 0 2.1.4.9.4 1 1-.6 1.2a30 30 0 00-16.3 7.5c-4 3.8-6 8.4-5.7 13.4 0 1-.7 1.2-1.6.7zM289.7 144.3c-1-.3-1-.7.7-.9 8.3-.8 15.2-2.8 20-5.5 4.9-2.8 7.6-6.2 7-9.8-.1-.8.8-1 1.9-.6.8.3 1.2.5 1.2 1 .3 3.9-2.3 7.4-7.3 10.3-5 2.9-12.1 5-21 5.8-.9.1-1.6 0-2.5-.3z" fill="#000"/><path d="M189.4 38c2.5.5 4.1 1.8 6 2.8l46.1 27c3 1.8 6 3.4 9.6 3.7 4.6.4 8.6-.9 12.6-3.1l32.8-19 16-9.2c1.1-.7 2.3-1.1 3.9-1.8.9 4.2.7 8 .1 11.8-.3 1.8-1.8 2.8-3.3 3.7l-13 7.5-36.4 21-1 .6c-6.7 4.2-13.2 3.9-20-.2-10.6-6.4-21.4-12.6-32.2-19l-16-9.2c-1-.7-2.3-1.3-3.3-2.2-.9-1-1.7-2.1-2-3.3-.4-1.3-.3-2.7-.2-4 0-2.3-.3-4.6.3-7.1z" fill="#fff" stroke="#fff" stroke-width="1.3" stroke-miterlimit="10"/><path d="M318 41.6c0 2.3-.2 4.6 0 6.8 0 3.4-1.5 5.9-4.3 7.5L298 65c-11.4 6.7-22.9 13.2-34.3 20a19.5 19.5 0 01-21.3 0C226.7 75.4 211 66.1 195 57.1c-5-2.9-7.5-6.5-7-12.4.4-3.4.2-6.8.2-10.3 0-4 1.6-6.8 5.1-8.7l29.9-17.3c6.7-3.9 13.4-7.6 20-11.6C250-7 256.5-7 263-3L312.8 26c3.7 2.1 5.5 5 5.2 9.3-.2 2 0 4.2 0 6.3zM253 70c3.3 0 6.4-1.1 9.4-2.9L310 39.7c1.3-.7 2.6-1.5 3.8-2.4 2.6-2 2.7-5.8.3-8-.8-.7-1.8-1.3-2.8-1.9L262.5-1a17.2 17.2 0 00-18.7 0l-48.4 28c-1.2.7-2.3 1.4-3.3 2.3a5 5 0 00.1 7.5c1 .9 2.2 1.5 3.3 2.2l12.2 7.1c12 7 24.1 14 36 21.2 3 1.6 5.9 2.6 9.3 2.8zm-62.3-31.3c-.7 2.5-.3 4.7-.4 7 0 1.3-.1 2.7.2 3.9a8.3 8.3 0 002 3.3c1 .9 2.2 1.5 3.3 2.2l15.6 9 31.7 18.7c6.6 4 13 4.3 19.6.1l1-.5 35.7-20.7 12.7-7.3c1.5-.9 3-1.9 3.3-3.7.6-3.7.7-7.5-.2-11.6-1.5.7-2.7 1.1-3.8 1.8l-15.6 9-32.3 18.7a20.2 20.2 0 01-12.3 3 23 23 0 01-9.4-3.6l-45.4-26.5c-1.7-1-3.3-2.3-5.7-2.8z" fill="#000"/><path d="M313.7 28.2c-.9-.7-1.9-1.3-2.9-1.8C295 17.3 279 8.3 263.2-1c-6.9-4-13.4-4-20.3 0-15.6 9.2-31.4 18-47.1 27.1-1.3.7-2.7 1.5-3.8 2.4-2.7 2.1-2.6 5.7 0 7.9 1 .8 2.1 1.5 3.3 2.1l11.3 6.5 37.3 21.5c2.8 1.6 5.8 2.6 9.4 2.5 3.3.2 6.4-1 9.4-2.8l48.1-27.6c1-.6 2-1.1 2.9-1.8 3-2.3 3-6.4 0-8.6z" fill="#fff" stroke="#fff" stroke-width="1.3" stroke-miterlimit="10"/><path d="M236 35.7c-.9-.6-.2-1 1.4-1 4.9.6 10.2.8 13.9.5-2.6-.4-4.9-1.4-6.6-2.6-5-3.4-6.6-8.1-.2-11.6a19.5 19.5 0 0119.8 1.7c5.3 3.5 7.2 8.5.4 12.1-5.4 3-13.8 3.1-25.5 2.3-.9 0-1.5-.3-2.1-.7l-1-.7zm26-2.8c4.4-2.3 4.3-5.7-.3-8.8a14 14 0 00-14.4-1.2c-4.4 2.3-4.2 5.7.3 8.8a14 14 0 0014.5 1.2z" fill="#000"/><g clip-path="url(#clip0)"><path d="M407.7 17.3c10-4.7 16.6-2.8 19 1.7 2.3 4.5 0 10.6-10 15.2-10.3 4.8-16.6 2.8-19-1.6-2.4-4.5-.2-10.4 10-15.3zm-7.1 13.9c2 3.9 7.6 4.3 15 .9 7.2-3.4 10.2-7.9 8.1-11.7-2-4-7.7-4.3-14.9-.9-7.3 3.5-10.3 7.8-8.2 11.7z" fill="#000"/></g><defs><clipPath id="clip0"><path fill="#fff" transform="rotate(61.9 202.7 356.7)" d="M0 0h19.3v31.9H0z"/></clipPath></defs></svg>
